  0
SECTION
  2
BLOCKS
  0
ENDSEC
  0
SECTION
  2
ENTITIES
  0
LINE
  8
0
 10
19.0013
 20
-64.9685
 11
19.4948
 21
-64.8743
  0
LINE
  8
0
 10
19.4948
 20
-64.8743
 11
19.9725
 21
-64.7191
  0
LINE
  8
0
 10
19.9725
 20
-64.7191
 11
20.427
 21
-64.5052
  0
LINE
  8
0
 10
20.427
 20
-64.5052
 11
20.8511
 21
-64.2361
  0
LINE
  8
0
 10
20.8511
 20
-64.2361
 11
21.2382
 21
-63.9159
  0
LINE
  8
0
 10
21.2382
 20
-63.9159
 11
21.582
 21
-63.5497
  0
LINE
  8
0
 10
21.582
 20
-63.5497
 11
21.8773
 21
-63.1433
  0
LINE
  8
0
 10
21.8773
 20
-63.1433
 11
22.1193
 21
-62.7031
  0
LINE
  8
0
 10
22.1193
 20
-62.7031
 11
22.3042
 21
-62.2361
  0
LINE
  8
0
 10
22.3042
 20
-62.2361
 11
22.4291
 21
-61.7495
  0
LINE
  8
0
 10
22.4291
 20
-61.7495
 11
22.4921
 21
-61.2512
  0
LINE
  8
0
 10
22.4921
 20
-61.2512
 11
22.4921
 21
61.2512
  0
LINE
  8
0
 10
22.4921
 20
61.2512
 11
22.4291
 21
61.7495
  0
LINE
  8
0
 10
22.4291
 20
61.7495
 11
22.3042
 21
62.2361
  0
LINE
  8
0
 10
22.3042
 20
62.2361
 11
22.1193
 21
62.7031
  0
LINE
  8
0
 10
22.1193
 20
62.7031
 11
21.8773
 21
63.1433
  0
LINE
  8
0
 10
21.8773
 20
63.1433
 11
21.582
 21
63.5497
  0
LINE
  8
0
 10
21.582
 20
63.5497
 11
21.2382
 21
63.9159
  0
LINE
  8
0
 10
21.2382
 20
63.9159
 11
20.8511
 21
64.2361
  0
LINE
  8
0
 10
20.8511
 20
64.2361
 11
20.427
 21
64.5052
  0
LINE
  8
0
 10
20.427
 20
64.5052
 11
19.9725
 21
64.7191
  0
LINE
  8
0
 10
19.9725
 20
64.7191
 11
19.4948
 21
64.8743
  0
LINE
  8
0
 10
19.4948
 20
64.8743
 11
19.0013
 21
64.9685
  0
LINE
  8
0
 10
19.0013
 20
64.9685
 11
18.5
 21
65
  0
LINE
  8
0
 10
18.5
 20
65
 11
-18.5
 21
65
  0
LINE
  8
0
 10
-18.5
 20
65
 11
-19.0013
 21
64.9685
  0
LINE
  8
0
 10
-19.0013
 20
64.9685
 11
-19.4948
 21
64.8743
  0
LINE
  8
0
 10
-19.4948
 20
64.8743
 11
-19.9725
 21
64.7191
  0
LINE
  8
0
 10
-19.9725
 20
64.7191
 11
-20.427
 21
64.5052
  0
LINE
  8
0
 10
-20.427
 20
64.5052
 11
-20.8511
 21
64.2361
  0
LINE
  8
0
 10
-20.8511
 20
64.2361
 11
-21.2382
 21
63.9159
  0
LINE
  8
0
 10
-21.2382
 20
63.9159
 11
-21.582
 21
63.5497
  0
LINE
  8
0
 10
-21.582
 20
63.5497
 11
-21.8773
 21
63.1433
  0
LINE
  8
0
 10
-21.8773
 20
63.1433
 11
-22.1193
 21
62.7031
  0
LINE
  8
0
 10
-22.1193
 20
62.7031
 11
-22.3042
 21
62.2361
  0
LINE
  8
0
 10
-22.3042
 20
62.2361
 11
-22.4291
 21
61.7495
  0
LINE
  8
0
 10
-22.4291
 20
61.7495
 11
-22.4921
 21
61.2512
  0
LINE
  8
0
 10
-22.4921
 20
61.2512
 11
-22.4921
 21
-61.2512
  0
LINE
  8
0
 10
-22.4921
 20
-61.2512
 11
-22.4291
 21
-61.7495
  0
LINE
  8
0
 10
-22.4291
 20
-61.7495
 11
-22.3042
 21
-62.2361
  0
LINE
  8
0
 10
-22.3042
 20
-62.2361
 11
-22.1193
 21
-62.7031
  0
LINE
  8
0
 10
-22.1193
 20
-62.7031
 11
-21.8773
 21
-63.1433
  0
LINE
  8
0
 10
-21.8773
 20
-63.1433
 11
-21.582
 21
-63.5497
  0
LINE
  8
0
 10
-21.582
 20
-63.5497
 11
-21.2382
 21
-63.9159
  0
LINE
  8
0
 10
-21.2382
 20
-63.9159
 11
-20.8511
 21
-64.2361
  0
LINE
  8
0
 10
-20.8511
 20
-64.2361
 11
-20.427
 21
-64.5052
  0
LINE
  8
0
 10
-20.427
 20
-64.5052
 11
-19.9725
 21
-64.7191
  0
LINE
  8
0
 10
-19.9725
 20
-64.7191
 11
-19.4948
 21
-64.8743
  0
LINE
  8
0
 10
-19.4948
 20
-64.8743
 11
-19.0013
 21
-64.9685
  0
LINE
  8
0
 10
-19.0013
 20
-64.9685
 11
-18.5
 21
-65
  0
LINE
  8
0
 10
-18.5
 20
-65
 11
18.5
 21
-65
  0
LINE
  8
0
 10
18.5
 20
-65
 11
19.0013
 21
-64.9685
  0
LINE
  8
0
 10
-0.0708008
 20
61.9395
 11
-0.140503
 21
61.9527
  0
LINE
  8
0
 10
-0.140503
 20
61.9527
 11
-0.207977
 21
61.9747
  0
LINE
  8
0
 10
-0.207977
 20
61.9747
 11
-0.272186
 21
62.0049
  0
LINE
  8
0
 10
-0.272186
 20
62.0049
 11
-0.332092
 21
62.0429
  0
LINE
  8
0
 10
-0.332092
 20
62.0429
 11
-0.386765
 21
62.0881
  0
LINE
  8
0
 10
-0.386765
 20
62.0881
 11
-0.435333
 21
62.1398
  0
LINE
  8
0
 10
-0.435333
 20
62.1398
 11
-0.477036
 21
62.1973
  0
LINE
  8
0
 10
-0.477036
 20
62.1973
 11
-0.511215
 21
62.2594
  0
LINE
  8
0
 10
-0.511215
 20
62.2594
 11
-0.537338
 21
62.3254
  0
LINE
  8
0
 10
-0.537338
 20
62.3254
 11
-0.554977
 21
62.3941
  0
LINE
  8
0
 10
-0.554977
 20
62.3941
 11
-0.563873
 21
62.4645
  0
LINE
  8
0
 10
-0.563873
 20
62.4645
 11
-0.563873
 21
62.5355
  0
LINE
  8
0
 10
-0.563873
 20
62.5355
 11
-0.554977
 21
62.6059
  0
LINE
  8
0
 10
-0.554977
 20
62.6059
 11
-0.537338
 21
62.6746
  0
LINE
  8
0
 10
-0.537338
 20
62.6746
 11
-0.511215
 21
62.7406
  0
LINE
  8
0
 10
-0.511215
 20
62.7406
 11
-0.477036
 21
62.8027
  0
LINE
  8
0
 10
-0.477036
 20
62.8027
 11
-0.435333
 21
62.8601
  0
LINE
  8
0
 10
-0.435333
 20
62.8601
 11
-0.386765
 21
62.9119
  0
LINE
  8
0
 10
-0.386765
 20
62.9119
 11
-0.332092
 21
62.9571
  0
LINE
  8
0
 10
-0.332092
 20
62.9571
 11
-0.272186
 21
62.9951
  0
LINE
  8
0
 10
-0.272186
 20
62.9951
 11
-0.207977
 21
63.0253
  0
LINE
  8
0
 10
-0.207977
 20
63.0253
 11
-0.140503
 21
63.0472
  0
LINE
  8
0
 10
-0.140503
 20
63.0472
 11
-0.0708008
 21
63.0605
  0
LINE
  8
0
 10
-0.0708008
 20
63.0605
 11
0
 21
63.065
  0
LINE
  8
0
 10
0
 20
63.065
 11
0.0708008
 21
63.0605
  0
LINE
  8
0
 10
0.0708008
 20
63.0605
 11
0.140503
 21
63.0472
  0
LINE
  8
0
 10
0.140503
 20
63.0472
 11
0.207977
 21
63.0253
  0
LINE
  8
0
 10
0.207977
 20
63.0253
 11
0.272186
 21
62.9951
  0
LINE
  8
0
 10
0.272186
 20
62.9951
 11
0.332092
 21
62.9571
  0
LINE
  8
0
 10
0.332092
 20
62.9571
 11
0.386765
 21
62.9119
  0
LINE
  8
0
 10
0.386765
 20
62.9119
 11
0.435333
 21
62.8601
  0
LINE
  8
0
 10
0.435333
 20
62.8601
 11
0.477036
 21
62.8027
  0
LINE
  8
0
 10
0.477036
 20
62.8027
 11
0.511215
 21
62.7406
  0
LINE
  8
0
 10
0.511215
 20
62.7406
 11
0.537338
 21
62.6746
  0
LINE
  8
0
 10
0.537338
 20
62.6746
 11
0.554977
 21
62.6059
  0
LINE
  8
0
 10
0.554977
 20
62.6059
 11
0.563873
 21
62.5355
  0
LINE
  8
0
 10
0.563873
 20
62.5355
 11
0.563873
 21
62.4645
  0
LINE
  8
0
 10
0.563873
 20
62.4645
 11
0.554977
 21
62.3941
  0
LINE
  8
0
 10
0.554977
 20
62.3941
 11
0.537338
 21
62.3254
  0
LINE
  8
0
 10
0.537338
 20
62.3254
 11
0.511215
 21
62.2594
  0
LINE
  8
0
 10
0.511215
 20
62.2594
 11
0.477036
 21
62.1973
  0
LINE
  8
0
 10
0.477036
 20
62.1973
 11
0.435333
 21
62.1398
  0
LINE
  8
0
 10
0.435333
 20
62.1398
 11
0.386765
 21
62.0881
  0
LINE
  8
0
 10
0.386765
 20
62.0881
 11
0.332092
 21
62.0429
  0
LINE
  8
0
 10
0.332092
 20
62.0429
 11
0.272186
 21
62.0049
  0
LINE
  8
0
 10
0.272186
 20
62.0049
 11
0.207977
 21
61.9747
  0
LINE
  8
0
 10
0.207977
 20
61.9747
 11
0.140503
 21
61.9527
  0
LINE
  8
0
 10
0.140503
 20
61.9527
 11
0.0708008
 21
61.9395
  0
LINE
  8
0
 10
0.0708008
 20
61.9395
 11
0
 21
61.935
  0
LINE
  8
0
 10
0
 20
61.935
 11
-0.0708008
 21
61.9395
  0
LINE
  8
0
 10
20.4292
 20
41.4395
 11
20.3595
 21
41.4527
  0
LINE
  8
0
 10
20.3595
 20
41.4527
 11
20.292
 21
41.4747
  0
LINE
  8
0
 10
20.292
 20
41.4747
 11
20.2278
 21
41.5049
  0
LINE
  8
0
 10
20.2278
 20
41.5049
 11
20.1679
 21
41.5429
  0
LINE
  8
0
 10
20.1679
 20
41.5429
 11
20.1132
 21
41.5881
  0
LINE
  8
0
 10
20.1132
 20
41.5881
 11
20.0647
 21
41.6398
  0
LINE
  8
0
 10
20.0647
 20
41.6398
 11
20.0229
 21
41.6973
  0
LINE
  8
0
 10
20.0229
 20
41.6973
 11
19.9888
 21
41.7594
  0
LINE
  8
0
 10
19.9888
 20
41.7594
 11
19.9626
 21
41.8254
  0
LINE
  8
0
 10
19.9626
 20
41.8254
 11
19.945
 21
41.8941
  0
LINE
  8
0
 10
19.945
 20
41.8941
 11
19.9361
 21
41.9645
  0
LINE
  8
0
 10
19.9361
 20
41.9645
 11
19.9361
 21
42.0355
  0
LINE
  8
0
 10
19.9361
 20
42.0355
 11
19.945
 21
42.1059
  0
LINE
  8
0
 10
19.945
 20
42.1059
 11
19.9626
 21
42.1746
  0
LINE
  8
0
 10
19.9626
 20
42.1746
 11
19.9888
 21
42.2406
  0
LINE
  8
0
 10
19.9888
 20
42.2406
 11
20.0229
 21
42.3027
  0
LINE
  8
0
 10
20.0229
 20
42.3027
 11
20.0647
 21
42.3601
  0
LINE
  8
0
 10
20.0647
 20
42.3601
 11
20.1132
 21
42.4119
  0
LINE
  8
0
 10
20.1132
 20
42.4119
 11
20.1679
 21
42.4571
  0
LINE
  8
0
 10
20.1679
 20
42.4571
 11
20.2278
 21
42.4951
  0
LINE
  8
0
 10
20.2278
 20
42.4951
 11
20.292
 21
42.5253
  0
LINE
  8
0
 10
20.292
 20
42.5253
 11
20.3595
 21
42.5472
  0
LINE
  8
0
 10
20.3595
 20
42.5472
 11
20.4292
 21
42.5605
  0
LINE
  8
0
 10
20.4292
 20
42.5605
 11
20.5
 21
42.565
  0
LINE
  8
0
 10
20.5
 20
42.565
 11
20.5708
 21
42.5605
  0
LINE
  8
0
 10
20.5708
 20
42.5605
 11
20.6405
 21
42.5472
  0
LINE
  8
0
 10
20.6405
 20
42.5472
 11
20.708
 21
42.5253
  0
LINE
  8
0
 10
20.708
 20
42.5253
 11
20.7722
 21
42.4951
  0
LINE
  8
0
 10
20.7722
 20
42.4951
 11
20.8321
 21
42.4571
  0
LINE
  8
0
 10
20.8321
 20
42.4571
 11
20.8868
 21
42.4119
  0
LINE
  8
0
 10
20.8868
 20
42.4119
 11
20.9353
 21
42.3601
  0
LINE
  8
0
 10
20.9353
 20
42.3601
 11
20.977
 21
42.3027
  0
LINE
  8
0
 10
20.977
 20
42.3027
 11
21.0112
 21
42.2406
  0
LINE
  8
0
 10
21.0112
 20
42.2406
 11
21.0373
 21
42.1746
  0
LINE
  8
0
 10
21.0373
 20
42.1746
 11
21.055
 21
42.1059
  0
LINE
  8
0
 10
21.055
 20
42.1059
 11
21.0639
 21
42.0355
  0
LINE
  8
0
 10
21.0639
 20
42.0355
 11
21.0639
 21
41.9645
  0
LINE
  8
0
 10
21.0639
 20
41.9645
 11
21.055
 21
41.8941
  0
LINE
  8
0
 10
21.055
 20
41.8941
 11
21.0373
 21
41.8254
  0
LINE
  8
0
 10
21.0373
 20
41.8254
 11
21.0112
 21
41.7594
  0
LINE
  8
0
 10
21.0112
 20
41.7594
 11
20.977
 21
41.6973
  0
LINE
  8
0
 10
20.977
 20
41.6973
 11
20.9353
 21
41.6398
  0
LINE
  8
0
 10
20.9353
 20
41.6398
 11
20.8868
 21
41.5881
  0
LINE
  8
0
 10
20.8868
 20
41.5881
 11
20.8321
 21
41.5429
  0
LINE
  8
0
 10
20.8321
 20
41.5429
 11
20.7722
 21
41.5049
  0
LINE
  8
0
 10
20.7722
 20
41.5049
 11
20.708
 21
41.4747
  0
LINE
  8
0
 10
20.708
 20
41.4747
 11
20.6405
 21
41.4527
  0
LINE
  8
0
 10
20.6405
 20
41.4527
 11
20.5708
 21
41.4395
  0
LINE
  8
0
 10
20.5708
 20
41.4395
 11
20.5
 21
41.435
  0
LINE
  8
0
 10
20.5
 20
41.435
 11
20.4292
 21
41.4395
  0
LINE
  8
0
 10
-20.5708
 20
41.4395
 11
-20.6405
 21
41.4527
  0
LINE
  8
0
 10
-20.6405
 20
41.4527
 11
-20.708
 21
41.4747
  0
LINE
  8
0
 10
-20.708
 20
41.4747
 11
-20.7722
 21
41.5049
  0
LINE
  8
0
 10
-20.7722
 20
41.5049
 11
-20.8321
 21
41.5429
  0
LINE
  8
0
 10
-20.8321
 20
41.5429
 11
-20.8868
 21
41.5881
  0
LINE
  8
0
 10
-20.8868
 20
41.5881
 11
-20.9353
 21
41.6398
  0
LINE
  8
0
 10
-20.9353
 20
41.6398
 11
-20.977
 21
41.6973
  0
LINE
  8
0
 10
-20.977
 20
41.6973
 11
-21.0112
 21
41.7594
  0
LINE
  8
0
 10
-21.0112
 20
41.7594
 11
-21.0373
 21
41.8254
  0
LINE
  8
0
 10
-21.0373
 20
41.8254
 11
-21.055
 21
41.8941
  0
LINE
  8
0
 10
-21.055
 20
41.8941
 11
-21.0639
 21
41.9645
  0
LINE
  8
0
 10
-21.0639
 20
41.9645
 11
-21.0639
 21
42.0355
  0
LINE
  8
0
 10
-21.0639
 20
42.0355
 11
-21.055
 21
42.1059
  0
LINE
  8
0
 10
-21.055
 20
42.1059
 11
-21.0373
 21
42.1746
  0
LINE
  8
0
 10
-21.0373
 20
42.1746
 11
-21.0112
 21
42.2406
  0
LINE
  8
0
 10
-21.0112
 20
42.2406
 11
-20.977
 21
42.3027
  0
LINE
  8
0
 10
-20.977
 20
42.3027
 11
-20.9353
 21
42.3601
  0
LINE
  8
0
 10
-20.9353
 20
42.3601
 11
-20.8868
 21
42.4119
  0
LINE
  8
0
 10
-20.8868
 20
42.4119
 11
-20.8321
 21
42.4571
  0
LINE
  8
0
 10
-20.8321
 20
42.4571
 11
-20.7722
 21
42.4951
  0
LINE
  8
0
 10
-20.7722
 20
42.4951
 11
-20.708
 21
42.5253
  0
LINE
  8
0
 10
-20.708
 20
42.5253
 11
-20.6405
 21
42.5472
  0
LINE
  8
0
 10
-20.6405
 20
42.5472
 11
-20.5708
 21
42.5605
  0
LINE
  8
0
 10
-20.5708
 20
42.5605
 11
-20.5
 21
42.565
  0
LINE
  8
0
 10
-20.5
 20
42.565
 11
-20.4292
 21
42.5605
  0
LINE
  8
0
 10
-20.4292
 20
42.5605
 11
-20.3595
 21
42.5472
  0
LINE
  8
0
 10
-20.3595
 20
42.5472
 11
-20.292
 21
42.5253
  0
LINE
  8
0
 10
-20.292
 20
42.5253
 11
-20.2278
 21
42.4951
  0
LINE
  8
0
 10
-20.2278
 20
42.4951
 11
-20.1679
 21
42.4571
  0
LINE
  8
0
 10
-20.1679
 20
42.4571
 11
-20.1132
 21
42.4119
  0
LINE
  8
0
 10
-20.1132
 20
42.4119
 11
-20.0647
 21
42.3601
  0
LINE
  8
0
 10
-20.0647
 20
42.3601
 11
-20.0229
 21
42.3027
  0
LINE
  8
0
 10
-20.0229
 20
42.3027
 11
-19.9888
 21
42.2406
  0
LINE
  8
0
 10
-19.9888
 20
42.2406
 11
-19.9626
 21
42.1746
  0
LINE
  8
0
 10
-19.9626
 20
42.1746
 11
-19.945
 21
42.1059
  0
LINE
  8
0
 10
-19.945
 20
42.1059
 11
-19.9361
 21
42.0355
  0
LINE
  8
0
 10
-19.9361
 20
42.0355
 11
-19.9361
 21
41.9645
  0
LINE
  8
0
 10
-19.9361
 20
41.9645
 11
-19.945
 21
41.8941
  0
LINE
  8
0
 10
-19.945
 20
41.8941
 11
-19.9626
 21
41.8254
  0
LINE
  8
0
 10
-19.9626
 20
41.8254
 11
-19.9888
 21
41.7594
  0
LINE
  8
0
 10
-19.9888
 20
41.7594
 11
-20.0229
 21
41.6973
  0
LINE
  8
0
 10
-20.0229
 20
41.6973
 11
-20.0647
 21
41.6398
  0
LINE
  8
0
 10
-20.0647
 20
41.6398
 11
-20.1132
 21
41.5881
  0
LINE
  8
0
 10
-20.1132
 20
41.5881
 11
-20.1679
 21
41.5429
  0
LINE
  8
0
 10
-20.1679
 20
41.5429
 11
-20.2278
 21
41.5049
  0
LINE
  8
0
 10
-20.2278
 20
41.5049
 11
-20.292
 21
41.4747
  0
LINE
  8
0
 10
-20.292
 20
41.4747
 11
-20.3595
 21
41.4527
  0
LINE
  8
0
 10
-20.3595
 20
41.4527
 11
-20.4292
 21
41.4395
  0
LINE
  8
0
 10
-20.4292
 20
41.4395
 11
-20.5
 21
41.435
  0
LINE
  8
0
 10
-20.5
 20
41.435
 11
-20.5708
 21
41.4395
  0
LINE
  8
0
 10
-10.0708
 20
20.9395
 11
-10.1405
 21
20.9527
  0
LINE
  8
0
 10
-10.1405
 20
20.9527
 11
-10.208
 21
20.9747
  0
LINE
  8
0
 10
-10.208
 20
20.9747
 11
-10.2722
 21
21.0049
  0
LINE
  8
0
 10
-10.2722
 20
21.0049
 11
-10.3321
 21
21.0429
  0
LINE
  8
0
 10
-10.3321
 20
21.0429
 11
-10.3868
 21
21.0881
  0
LINE
  8
0
 10
-10.3868
 20
21.0881
 11
-10.4353
 21
21.1398
  0
LINE
  8
0
 10
-10.4353
 20
21.1398
 11
-10.477
 21
21.1973
  0
LINE
  8
0
 10
-10.477
 20
21.1973
 11
-10.5112
 21
21.2594
  0
LINE
  8
0
 10
-10.5112
 20
21.2594
 11
-10.5373
 21
21.3254
  0
LINE
  8
0
 10
-10.5373
 20
21.3254
 11
-10.555
 21
21.3941
  0
LINE
  8
0
 10
-10.555
 20
21.3941
 11
-10.5639
 21
21.4645
  0
LINE
  8
0
 10
-10.5639
 20
21.4645
 11
-10.5639
 21
21.5355
  0
LINE
  8
0
 10
-10.5639
 20
21.5355
 11
-10.555
 21
21.6059
  0
LINE
  8
0
 10
-10.555
 20
21.6059
 11
-10.5373
 21
21.6746
  0
LINE
  8
0
 10
-10.5373
 20
21.6746
 11
-10.5112
 21
21.7406
  0
LINE
  8
0
 10
-10.5112
 20
21.7406
 11
-10.477
 21
21.8027
  0
LINE
  8
0
 10
-10.477
 20
21.8027
 11
-10.4353
 21
21.8601
  0
LINE
  8
0
 10
-10.4353
 20
21.8601
 11
-10.3868
 21
21.9119
  0
LINE
  8
0
 10
-10.3868
 20
21.9119
 11
-10.3321
 21
21.9571
  0
LINE
  8
0
 10
-10.3321
 20
21.9571
 11
-10.2722
 21
21.9951
  0
LINE
  8
0
 10
-10.2722
 20
21.9951
 11
-10.208
 21
22.0253
  0
LINE
  8
0
 10
-10.208
 20
22.0253
 11
-10.1405
 21
22.0472
  0
LINE
  8
0
 10
-10.1405
 20
22.0472
 11
-10.0708
 21
22.0605
  0
LINE
  8
0
 10
-10.0708
 20
22.0605
 11
-10
 21
22.065
  0
LINE
  8
0
 10
-10
 20
22.065
 11
-9.92918
 21
22.0605
  0
LINE
  8
0
 10
-9.92918
 20
22.0605
 11
-9.85948
 21
22.0472
  0
LINE
  8
0
 10
-9.85948
 20
22.0472
 11
-9.79201
 21
22.0253
  0
LINE
  8
0
 10
-9.79201
 20
22.0253
 11
-9.7278
 21
21.9951
  0
LINE
  8
0
 10
-9.7278
 20
21.9951
 11
-9.66789
 21
21.9571
  0
LINE
  8
0
 10
-9.66789
 20
21.9571
 11
-9.61322
 21
21.9119
  0
LINE
  8
0
 10
-9.61322
 20
21.9119
 11
-9.56465
 21
21.8601
  0
LINE
  8
0
 10
-9.56465
 20
21.8601
 11
-9.52295
 21
21.8027
  0
LINE
  8
0
 10
-9.52295
 20
21.8027
 11
-9.48877
 21
21.7406
  0
LINE
  8
0
 10
-9.48877
 20
21.7406
 11
-9.46265
 21
21.6746
  0
LINE
  8
0
 10
-9.46265
 20
21.6746
 11
-9.44501
 21
21.6059
  0
LINE
  8
0
 10
-9.44501
 20
21.6059
 11
-9.43611
 21
21.5355
  0
LINE
  8
0
 10
-9.43611
 20
21.5355
 11
-9.43611
 21
21.4645
  0
LINE
  8
0
 10
-9.43611
 20
21.4645
 11
-9.44501
 21
21.3941
  0
LINE
  8
0
 10
-9.44501
 20
21.3941
 11
-9.46265
 21
21.3254
  0
LINE
  8
0
 10
-9.46265
 20
21.3254
 11
-9.48877
 21
21.2594
  0
LINE
  8
0
 10
-9.48877
 20
21.2594
 11
-9.52295
 21
21.1973
  0
LINE
  8
0
 10
-9.52295
 20
21.1973
 11
-9.56465
 21
21.1398
  0
LINE
  8
0
 10
-9.56465
 20
21.1398
 11
-9.61322
 21
21.0881
  0
LINE
  8
0
 10
-9.61322
 20
21.0881
 11
-9.66789
 21
21.0429
  0
LINE
  8
0
 10
-9.66789
 20
21.0429
 11
-9.7278
 21
21.0049
  0
LINE
  8
0
 10
-9.7278
 20
21.0049
 11
-9.79201
 21
20.9747
  0
LINE
  8
0
 10
-9.79201
 20
20.9747
 11
-9.85948
 21
20.9527
  0
LINE
  8
0
 10
-9.85948
 20
20.9527
 11
-9.92918
 21
20.9395
  0
LINE
  8
0
 10
-9.92918
 20
20.9395
 11
-10
 21
20.935
  0
LINE
  8
0
 10
-10
 20
20.935
 11
-10.0708
 21
20.9395
  0
LINE
  8
0
 10
9.92918
 20
20.9395
 11
9.85948
 21
20.9527
  0
LINE
  8
0
 10
9.85948
 20
20.9527
 11
9.79201
 21
20.9747
  0
LINE
  8
0
 10
9.79201
 20
20.9747
 11
9.7278
 21
21.0049
  0
LINE
  8
0
 10
9.7278
 20
21.0049
 11
9.66789
 21
21.0429
  0
LINE
  8
0
 10
9.66789
 20
21.0429
 11
9.61322
 21
21.0881
  0
LINE
  8
0
 10
9.61322
 20
21.0881
 11
9.56465
 21
21.1398
  0
LINE
  8
0
 10
9.56465
 20
21.1398
 11
9.52295
 21
21.1973
  0
LINE
  8
0
 10
9.52295
 20
21.1973
 11
9.48877
 21
21.2594
  0
LINE
  8
0
 10
9.48877
 20
21.2594
 11
9.46265
 21
21.3254
  0
LINE
  8
0
 10
9.46265
 20
21.3254
 11
9.44501
 21
21.3941
  0
LINE
  8
0
 10
9.44501
 20
21.3941
 11
9.43611
 21
21.4645
  0
LINE
  8
0
 10
9.43611
 20
21.4645
 11
9.43611
 21
21.5355
  0
LINE
  8
0
 10
9.43611
 20
21.5355
 11
9.44501
 21
21.6059
  0
LINE
  8
0
 10
9.44501
 20
21.6059
 11
9.46265
 21
21.6746
  0
LINE
  8
0
 10
9.46265
 20
21.6746
 11
9.48877
 21
21.7406
  0
LINE
  8
0
 10
9.48877
 20
21.7406
 11
9.52295
 21
21.8027
  0
LINE
  8
0
 10
9.52295
 20
21.8027
 11
9.56465
 21
21.8601
  0
LINE
  8
0
 10
9.56465
 20
21.8601
 11
9.61322
 21
21.9119
  0
LINE
  8
0
 10
9.61322
 20
21.9119
 11
9.66789
 21
21.9571
  0
LINE
  8
0
 10
9.66789
 20
21.9571
 11
9.7278
 21
21.9951
  0
LINE
  8
0
 10
9.7278
 20
21.9951
 11
9.79201
 21
22.0253
  0
LINE
  8
0
 10
9.79201
 20
22.0253
 11
9.85948
 21
22.0472
  0
LINE
  8
0
 10
9.85948
 20
22.0472
 11
9.92918
 21
22.0605
  0
LINE
  8
0
 10
9.92918
 20
22.0605
 11
10
 21
22.065
  0
LINE
  8
0
 10
10
 20
22.065
 11
10.0708
 21
22.0605
  0
LINE
  8
0
 10
10.0708
 20
22.0605
 11
10.1405
 21
22.0472
  0
LINE
  8
0
 10
10.1405
 20
22.0472
 11
10.208
 21
22.0253
  0
LINE
  8
0
 10
10.208
 20
22.0253
 11
10.2722
 21
21.9951
  0
LINE
  8
0
 10
10.2722
 20
21.9951
 11
10.3321
 21
21.9571
  0
LINE
  8
0
 10
10.3321
 20
21.9571
 11
10.3868
 21
21.9119
  0
LINE
  8
0
 10
10.3868
 20
21.9119
 11
10.4353
 21
21.8601
  0
LINE
  8
0
 10
10.4353
 20
21.8601
 11
10.477
 21
21.8027
  0
LINE
  8
0
 10
10.477
 20
21.8027
 11
10.5112
 21
21.7406
  0
LINE
  8
0
 10
10.5112
 20
21.7406
 11
10.5373
 21
21.6746
  0
LINE
  8
0
 10
10.5373
 20
21.6746
 11
10.555
 21
21.6059
  0
LINE
  8
0
 10
10.555
 20
21.6059
 11
10.5639
 21
21.5355
  0
LINE
  8
0
 10
10.5639
 20
21.5355
 11
10.5639
 21
21.4645
  0
LINE
  8
0
 10
10.5639
 20
21.4645
 11
10.555
 21
21.3941
  0
LINE
  8
0
 10
10.555
 20
21.3941
 11
10.5373
 21
21.3254
  0
LINE
  8
0
 10
10.5373
 20
21.3254
 11
10.5112
 21
21.2594
  0
LINE
  8
0
 10
10.5112
 20
21.2594
 11
10.477
 21
21.1973
  0
LINE
  8
0
 10
10.477
 20
21.1973
 11
10.4353
 21
21.1398
  0
LINE
  8
0
 10
10.4353
 20
21.1398
 11
10.3868
 21
21.0881
  0
LINE
  8
0
 10
10.3868
 20
21.0881
 11
10.3321
 21
21.0429
  0
LINE
  8
0
 10
10.3321
 20
21.0429
 11
10.2722
 21
21.0049
  0
LINE
  8
0
 10
10.2722
 20
21.0049
 11
10.208
 21
20.9747
  0
LINE
  8
0
 10
10.208
 20
20.9747
 11
10.1405
 21
20.9527
  0
LINE
  8
0
 10
10.1405
 20
20.9527
 11
10.0708
 21
20.9395
  0
LINE
  8
0
 10
10.0708
 20
20.9395
 11
10
 21
20.935
  0
LINE
  8
0
 10
10
 20
20.935
 11
9.92918
 21
20.9395
  0
LINE
  8
0
 10
-8.15697
 20
2.50493
 11
-8.46844
 21
2.54428
  0
LINE
  8
0
 10
-8.46844
 20
2.54428
 11
-8.77254
 21
2.62234
  0
LINE
  8
0
 10
-8.77254
 20
2.62234
 11
-9.06444
 21
2.73793
  0
LINE
  8
0
 10
-9.06444
 20
2.73793
 11
-9.33955
 21
2.88918
  0
LINE
  8
0
 10
-9.33955
 20
2.88918
 11
-9.59355
 21
3.07372
  0
LINE
  8
0
 10
-9.59355
 20
3.07372
 11
-9.82242
 21
3.28862
  0
LINE
  8
0
 10
-9.82242
 20
3.28862
 11
-10.0225
 21
3.53053
  0
LINE
  8
0
 10
-10.0225
 20
3.53053
 11
-10.1908
 21
3.79561
  0
LINE
  8
0
 10
-10.1908
 20
3.79561
 11
-10.3244
 21
4.07968
  0
LINE
  8
0
 10
-10.3244
 20
4.07968
 11
-10.4214
 21
4.37827
  0
LINE
  8
0
 10
-10.4214
 20
4.37827
 11
-10.4803
 21
4.68666
  0
LINE
  8
0
 10
-10.4803
 20
4.68666
 11
-10.5
 21
5
  0
LINE
  8
0
 10
-10.5
 20
5
 11
-10.4803
 21
5.31332
  0
LINE
  8
0
 10
-10.4803
 20
5.31332
 11
-10.4214
 21
5.62172
  0
LINE
  8
0
 10
-10.4214
 20
5.62172
 11
-10.3244
 21
5.9203
  0
LINE
  8
0
 10
-10.3244
 20
5.9203
 11
-10.1908
 21
6.20438
  0
LINE
  8
0
 10
-10.1908
 20
6.20438
 11
-10.0225
 21
6.46945
  0
LINE
  8
0
 10
-10.0225
 20
6.46945
 11
-9.82242
 21
6.71136
  0
LINE
  8
0
 10
-9.82242
 20
6.71136
 11
-9.59355
 21
6.92627
  0
LINE
  8
0
 10
-9.59355
 20
6.92627
 11
-9.33955
 21
7.11081
  0
LINE
  8
0
 10
-9.33955
 20
7.11081
 11
-9.06444
 21
7.26205
  0
LINE
  8
0
 10
-9.06444
 20
7.26205
 11
-8.77254
 21
7.37764
  0
LINE
  8
0
 10
-8.77254
 20
7.37764
 11
-8.46844
 21
7.4557
  0
LINE
  8
0
 10
-8.46844
 20
7.4557
 11
-8.15697
 21
7.49506
  0
LINE
  8
0
 10
-8.15697
 20
7.49506
 11
-7.84302
 21
7.49506
  0
LINE
  8
0
 10
-7.84302
 20
7.49506
 11
-7.53154
 21
7.4557
  0
LINE
  8
0
 10
-7.53154
 20
7.4557
 11
-7.22745
 21
7.37764
  0
LINE
  8
0
 10
-7.22745
 20
7.37764
 11
-6.93555
 21
7.26205
  0
LINE
  8
0
 10
-6.93555
 20
7.26205
 11
-6.66043
 21
7.11081
  0
LINE
  8
0
 10
-6.66043
 20
7.11081
 11
-6.40643
 21
6.92627
  0
LINE
  8
0
 10
-6.40643
 20
6.92627
 11
-6.17757
 21
6.71136
  0
LINE
  8
0
 10
-6.17757
 20
6.71136
 11
-5.97745
 21
6.46945
  0
LINE
  8
0
 10
-5.97745
 20
6.46945
 11
-5.80922
 21
6.20438
  0
LINE
  8
0
 10
-5.80922
 20
6.20438
 11
-5.67555
 21
5.9203
  0
LINE
  8
0
 10
-5.67555
 20
5.9203
 11
-5.57854
 21
5.62172
  0
LINE
  8
0
 10
-5.57854
 20
5.62172
 11
-5.5197
 21
5.31332
  0
LINE
  8
0
 10
-5.5197
 20
5.31332
 11
-5.5
 21
5
  0
LINE
  8
0
 10
-5.5
 20
5
 11
-5.5197
 21
4.68666
  0
LINE
  8
0
 10
-5.5197
 20
4.68666
 11
-5.57854
 21
4.37827
  0
LINE
  8
0
 10
-5.57854
 20
4.37827
 11
-5.67555
 21
4.07968
  0
LINE
  8
0
 10
-5.67555
 20
4.07968
 11
-5.80922
 21
3.79561
  0
LINE
  8
0
 10
-5.80922
 20
3.79561
 11
-5.97745
 21
3.53053
  0
LINE
  8
0
 10
-5.97745
 20
3.53053
 11
-6.17757
 21
3.28862
  0
LINE
  8
0
 10
-6.17757
 20
3.28862
 11
-6.40643
 21
3.07372
  0
LINE
  8
0
 10
-6.40643
 20
3.07372
 11
-6.66043
 21
2.88918
  0
LINE
  8
0
 10
-6.66043
 20
2.88918
 11
-6.93555
 21
2.73793
  0
LINE
  8
0
 10
-6.93555
 20
2.73793
 11
-7.22745
 21
2.62234
  0
LINE
  8
0
 10
-7.22745
 20
2.62234
 11
-7.53154
 21
2.54428
  0
LINE
  8
0
 10
-7.53154
 20
2.54428
 11
-7.84302
 21
2.50493
  0
LINE
  8
0
 10
-7.84302
 20
2.50493
 11
-8.15697
 21
2.50493
  0
LINE
  8
0
 10
15.843
 20
-38.4951
 11
15.5315
 21
-38.4557
  0
LINE
  8
0
 10
15.5315
 20
-38.4557
 11
15.2274
 21
-38.3776
  0
LINE
  8
0
 10
15.2274
 20
-38.3776
 11
14.9355
 21
-38.2621
  0
LINE
  8
0
 10
14.9355
 20
-38.2621
 11
14.6604
 21
-38.1108
  0
LINE
  8
0
 10
14.6604
 20
-38.1108
 11
14.4064
 21
-37.9263
  0
LINE
  8
0
 10
14.4064
 20
-37.9263
 11
14.1776
 21
-37.7114
  0
LINE
  8
0
 10
14.1776
 20
-37.7114
 11
13.9774
 21
-37.4695
  0
LINE
  8
0
 10
13.9774
 20
-37.4695
 11
13.8092
 21
-37.2044
  0
LINE
  8
0
 10
13.8092
 20
-37.2044
 11
13.6756
 21
-36.9203
  0
LINE
  8
0
 10
13.6756
 20
-36.9203
 11
13.5785
 21
-36.6217
  0
LINE
  8
0
 10
13.5785
 20
-36.6217
 11
13.5197
 21
-36.3133
  0
LINE
  8
0
 10
13.5197
 20
-36.3133
 11
13.5
 21
-36
  0
LINE
  8
0
 10
13.5
 20
-36
 11
13.5197
 21
-35.6867
  0
LINE
  8
0
 10
13.5197
 20
-35.6867
 11
13.5785
 21
-35.3783
  0
LINE
  8
0
 10
13.5785
 20
-35.3783
 11
13.6756
 21
-35.0797
  0
LINE
  8
0
 10
13.6756
 20
-35.0797
 11
13.8092
 21
-34.7956
  0
LINE
  8
0
 10
13.8092
 20
-34.7956
 11
13.9774
 21
-34.5305
  0
LINE
  8
0
 10
13.9774
 20
-34.5305
 11
14.1776
 21
-34.2886
  0
LINE
  8
0
 10
14.1776
 20
-34.2886
 11
14.4064
 21
-34.0737
  0
LINE
  8
0
 10
14.4064
 20
-34.0737
 11
14.6604
 21
-33.8892
  0
LINE
  8
0
 10
14.6604
 20
-33.8892
 11
14.9355
 21
-33.7379
  0
LINE
  8
0
 10
14.9355
 20
-33.7379
 11
15.2274
 21
-33.6224
  0
LINE
  8
0
 10
15.2274
 20
-33.6224
 11
15.5315
 21
-33.5443
  0
LINE
  8
0
 10
15.5315
 20
-33.5443
 11
15.843
 21
-33.5049
  0
LINE
  8
0
 10
15.843
 20
-33.5049
 11
16.157
 21
-33.5049
  0
LINE
  8
0
 10
16.157
 20
-33.5049
 11
16.4684
 21
-33.5443
  0
LINE
  8
0
 10
16.4684
 20
-33.5443
 11
16.7725
 21
-33.6224
  0
LINE
  8
0
 10
16.7725
 20
-33.6224
 11
17.0644
 21
-33.7379
  0
LINE
  8
0
 10
17.0644
 20
-33.7379
 11
17.3396
 21
-33.8892
  0
LINE
  8
0
 10
17.3396
 20
-33.8892
 11
17.5936
 21
-34.0737
  0
LINE
  8
0
 10
17.5936
 20
-34.0737
 11
17.8224
 21
-34.2886
  0
LINE
  8
0
 10
17.8224
 20
-34.2886
 11
18.0225
 21
-34.5305
  0
LINE
  8
0
 10
18.0225
 20
-34.5305
 11
18.1908
 21
-34.7956
  0
LINE
  8
0
 10
18.1908
 20
-34.7956
 11
18.3244
 21
-35.0797
  0
LINE
  8
0
 10
18.3244
 20
-35.0797
 11
18.4214
 21
-35.3783
  0
LINE
  8
0
 10
18.4214
 20
-35.3783
 11
18.4803
 21
-35.6867
  0
LINE
  8
0
 10
18.4803
 20
-35.6867
 11
18.5
 21
-36
  0
LINE
  8
0
 10
18.5
 20
-36
 11
18.4803
 21
-36.3133
  0
LINE
  8
0
 10
18.4803
 20
-36.3133
 11
18.4214
 21
-36.6217
  0
LINE
  8
0
 10
18.4214
 20
-36.6217
 11
18.3244
 21
-36.9203
  0
LINE
  8
0
 10
18.3244
 20
-36.9203
 11
18.1908
 21
-37.2044
  0
LINE
  8
0
 10
18.1908
 20
-37.2044
 11
18.0225
 21
-37.4695
  0
LINE
  8
0
 10
18.0225
 20
-37.4695
 11
17.8224
 21
-37.7114
  0
LINE
  8
0
 10
17.8224
 20
-37.7114
 11
17.5936
 21
-37.9263
  0
LINE
  8
0
 10
17.5936
 20
-37.9263
 11
17.3396
 21
-38.1108
  0
LINE
  8
0
 10
17.3396
 20
-38.1108
 11
17.0644
 21
-38.2621
  0
LINE
  8
0
 10
17.0644
 20
-38.2621
 11
16.7725
 21
-38.3776
  0
LINE
  8
0
 10
16.7725
 20
-38.3776
 11
16.4684
 21
-38.4557
  0
LINE
  8
0
 10
16.4684
 20
-38.4557
 11
16.157
 21
-38.4951
  0
LINE
  8
0
 10
16.157
 20
-38.4951
 11
15.843
 21
-38.4951
  0
LINE
  8
0
 10
-0.656967
 20
-63.4951
 11
-0.968445
 21
-63.4557
  0
LINE
  8
0
 10
-0.968445
 20
-63.4557
 11
-1.27254
 21
-63.3776
  0
LINE
  8
0
 10
-1.27254
 20
-63.3776
 11
-1.56444
 21
-63.2621
  0
LINE
  8
0
 10
-1.56444
 20
-63.2621
 11
-1.83955
 21
-63.1108
  0
LINE
  8
0
 10
-1.83955
 20
-63.1108
 11
-2.09355
 21
-62.9263
  0
LINE
  8
0
 10
-2.09355
 20
-62.9263
 11
-2.32242
 21
-62.7114
  0
LINE
  8
0
 10
-2.32242
 20
-62.7114
 11
-2.52254
 21
-62.4695
  0
LINE
  8
0
 10
-2.52254
 20
-62.4695
 11
-2.69077
 21
-62.2044
  0
LINE
  8
0
 10
-2.69077
 20
-62.2044
 11
-2.82443
 21
-61.9203
  0
LINE
  8
0
 10
-2.82443
 20
-61.9203
 11
-2.92145
 21
-61.6217
  0
LINE
  8
0
 10
-2.92145
 20
-61.6217
 11
-2.98029
 21
-61.3133
  0
LINE
  8
0
 10
-2.98029
 20
-61.3133
 11
-3
 21
-61
  0
LINE
  8
0
 10
-3
 20
-61
 11
-2.98029
 21
-60.6867
  0
LINE
  8
0
 10
-2.98029
 20
-60.6867
 11
-2.92145
 21
-60.3783
  0
LINE
  8
0
 10
-2.92145
 20
-60.3783
 11
-2.82443
 21
-60.0797
  0
LINE
  8
0
 10
-2.82443
 20
-60.0797
 11
-2.69077
 21
-59.7956
  0
LINE
  8
0
 10
-2.69077
 20
-59.7956
 11
-2.52254
 21
-59.5305
  0
LINE
  8
0
 10
-2.52254
 20
-59.5305
 11
-2.32242
 21
-59.2886
  0
LINE
  8
0
 10
-2.32242
 20
-59.2886
 11
-2.09355
 21
-59.0737
  0
LINE
  8
0
 10
-2.09355
 20
-59.0737
 11
-1.83955
 21
-58.8892
  0
LINE
  8
0
 10
-1.83955
 20
-58.8892
 11
-1.56444
 21
-58.7379
  0
LINE
  8
0
 10
-1.56444
 20
-58.7379
 11
-1.27254
 21
-58.6224
  0
LINE
  8
0
 10
-1.27254
 20
-58.6224
 11
-0.968445
 21
-58.5443
  0
LINE
  8
0
 10
-0.968445
 20
-58.5443
 11
-0.656967
 21
-58.5049
  0
LINE
  8
0
 10
-0.656967
 20
-58.5049
 11
-0.343018
 21
-58.5049
  0
LINE
  8
0
 10
-0.343018
 20
-58.5049
 11
-0.0315399
 21
-58.5443
  0
LINE
  8
0
 10
-0.0315399
 20
-58.5443
 11
0.272537
 21
-58.6224
  0
LINE
  8
0
 10
0.272537
 20
-58.6224
 11
0.564438
 21
-58.7379
  0
LINE
  8
0
 10
0.564438
 20
-58.7379
 11
0.839554
 21
-58.8892
  0
LINE
  8
0
 10
0.839554
 20
-58.8892
 11
1.09355
 21
-59.0737
  0
LINE
  8
0
 10
1.09355
 20
-59.0737
 11
1.32242
 21
-59.2886
  0
LINE
  8
0
 10
1.32242
 20
-59.2886
 11
1.52254
 21
-59.5305
  0
LINE
  8
0
 10
1.52254
 20
-59.5305
 11
1.69077
 21
-59.7956
  0
LINE
  8
0
 10
1.69077
 20
-59.7956
 11
1.82443
 21
-60.0797
  0
LINE
  8
0
 10
1.82443
 20
-60.0797
 11
1.92145
 21
-60.3783
  0
LINE
  8
0
 10
1.92145
 20
-60.3783
 11
1.98029
 21
-60.6867
  0
LINE
  8
0
 10
1.98029
 20
-60.6867
 11
2
 21
-61
  0
LINE
  8
0
 10
2
 20
-61
 11
1.98029
 21
-61.3133
  0
LINE
  8
0
 10
1.98029
 20
-61.3133
 11
1.92145
 21
-61.6217
  0
LINE
  8
0
 10
1.92145
 20
-61.6217
 11
1.82443
 21
-61.9203
  0
LINE
  8
0
 10
1.82443
 20
-61.9203
 11
1.69077
 21
-62.2044
  0
LINE
  8
0
 10
1.69077
 20
-62.2044
 11
1.52254
 21
-62.4695
  0
LINE
  8
0
 10
1.52254
 20
-62.4695
 11
1.32242
 21
-62.7114
  0
LINE
  8
0
 10
1.32242
 20
-62.7114
 11
1.09355
 21
-62.9263
  0
LINE
  8
0
 10
1.09355
 20
-62.9263
 11
0.839554
 21
-63.1108
  0
LINE
  8
0
 10
0.839554
 20
-63.1108
 11
0.564438
 21
-63.2621
  0
LINE
  8
0
 10
0.564438
 20
-63.2621
 11
0.272537
 21
-63.3776
  0
LINE
  8
0
 10
0.272537
 20
-63.3776
 11
-0.0315399
 21
-63.4557
  0
LINE
  8
0
 10
-0.0315399
 20
-63.4557
 11
-0.343018
 21
-63.4951
  0
LINE
  8
0
 10
-0.343018
 20
-63.4951
 11
-0.656967
 21
-63.4951
  0
ENDSEC
  0
SECTION
  2
OBJECTS
  0
DICTIONARY
  0
ENDSEC
  0
EOF
